<svg width="40" height="40" viewBox="0 0 40 40" fill="none" xmlns="http://www.w3.org/2000/svg">
<path fill-rule="evenodd" clip-rule="evenodd" d="M15.9184 3.26531C15.8101 3.26531 15.7063 3.30831 15.6298 3.38485C15.5532 3.4614 15.5102 3.56522 15.5102 3.67347V15.2421L23.1953 22.9272C23.5015 23.2334 23.6735 23.6486 23.6735 24.0816V36.7347H36.7347V3.67347C36.7347 3.56521 36.6917 3.4614 36.6152 3.38485C36.5386 3.30831 36.4348 3.26531 36.3265 3.26531H15.9184ZM20.4082 36.7347V24.7579L12.7242 17.0739L12.722 17.0718L11.8367 16.1865L3.26531 24.7579V36.7347H10.2041V30.2041C10.2041 29.3024 10.935 28.5714 11.8367 28.5714C12.7384 28.5714 13.4694 29.3024 13.4694 30.2041V36.7347H20.4082ZM12.2449 12.2965C11.704 12.1574 11.1058 12.2996 10.6823 12.7231L0.478193 22.9272C0.172011 23.2334 0 23.6486 0 24.0816V38.3674C0 39.269 0.730964 40 1.63265 40H38.3674C39.269 40 40 39.269 40 38.3674V3.67347C40 2.69921 39.613 1.76485 38.9241 1.07593C38.2352 0.387024 37.3008 0 36.3265 0H15.9184C14.9441 0 14.0097 0.387025 13.3208 1.07593C12.6319 1.76484 12.2449 2.6992 12.2449 3.67347V12.2965ZM22.0408 8.16327C22.9425 8.16327 23.6735 8.89423 23.6735 9.79592V9.81633C23.6735 10.718 22.9425 11.449 22.0408 11.449C21.1391 11.449 20.4082 10.718 20.4082 9.81633V9.79592C20.4082 8.89423 21.1391 8.16327 22.0408 8.16327ZM30.2041 8.16327C31.1058 8.16327 31.8367 8.89423 31.8367 9.79592V9.81633C31.8367 10.718 31.1058 11.449 30.2041 11.449C29.3024 11.449 28.5714 10.718 28.5714 9.81633V9.79592C28.5714 8.89423 29.3024 8.16327 30.2041 8.16327ZM30.2041 16.3265C31.1058 16.3265 31.8367 17.0575 31.8367 17.9592V17.9796C31.8367 18.8813 31.1058 19.6122 30.2041 19.6122C29.3024 19.6122 28.5714 18.8813 28.5714 17.9796V17.9592C28.5714 17.0575 29.3024 16.3265 30.2041 16.3265ZM30.2041 24.4898C31.1058 24.4898 31.8367 25.2208 31.8367 26.1225V26.1429C31.8367 27.0445 31.1058 27.7755 30.2041 27.7755C29.3024 27.7755 28.5714 27.0445 28.5714 26.1429V26.1225C28.5714 25.2208 29.3024 24.4898 30.2041 24.4898Z" fill="#EEEBFB"/>
</svg>
