<svg width="42" height="40" viewBox="0 0 42 40" fill="none" xmlns="http://www.w3.org/2000/svg">
<path fill-rule="evenodd" clip-rule="evenodd" d="M25.6293 1.4027e-06H16.322H16.322C14.2611 -4.27148e-05 12.5728 -7.8855e-05 11.2389 0.172957C9.84629 0.353617 8.6211 0.74574 7.6353 1.69633C6.64206 2.6541 6.22532 3.8567 6.03449 5.22452C5.8536 6.52114 5.85365 8.15815 5.85371 10.1374V10.1374V10.3504V10.3504C5.85365 12.3297 5.8536 13.9667 6.03449 15.2633C6.22532 16.6311 6.64206 17.8337 7.6353 18.7915C8.6211 19.7421 9.84629 20.1342 11.2389 20.3149C12.5728 20.4879 14.2611 20.4879 16.322 20.4878H25.6293C27.6902 20.4879 29.3785 20.4879 30.7124 20.3149C32.1051 20.1342 33.3302 19.7421 34.316 18.7915C35.3093 17.8337 35.726 16.6311 35.9169 15.2633C36.0977 13.9667 36.0977 12.3298 36.0976 10.3507V10.3506V10.3506V10.3504V10.1375V10.1373V10.1372V10.1372C36.0977 8.15803 36.0977 6.52109 35.9169 5.22452C35.726 3.8567 35.3093 2.6541 34.316 1.69633C33.3302 0.74574 32.1051 0.353617 30.7124 0.172957C29.3785 -7.88555e-05 27.6902 -4.27148e-05 25.6294 1.4027e-06H25.6293ZM9.66692 3.8032C10.0151 3.46744 10.5291 3.2164 11.6155 3.07547C12.7389 2.92973 14.2362 2.92684 16.4228 2.92684H25.5285C27.7152 2.92684 29.2124 2.92973 30.3359 3.07547C31.4222 3.2164 31.9362 3.46744 32.2844 3.8032C32.6252 4.13177 32.8754 4.60624 33.0181 5.62892C33.1675 6.69959 33.1708 8.13102 33.1708 10.2439C33.1708 12.3568 33.1675 13.7882 33.0181 14.8589C32.8754 15.8816 32.6252 16.3561 32.2844 16.6846C31.9362 17.0204 31.4222 17.2714 30.3359 17.4124C29.2124 17.5581 27.7152 17.561 25.5285 17.561H16.4228C14.2362 17.561 12.7389 17.5581 11.6155 17.4124C10.5291 17.2714 10.0151 17.0204 9.66692 16.6846C9.32617 16.3561 9.07592 15.8816 8.93325 14.8589C8.78388 13.7882 8.78054 12.3568 8.78054 10.2439C8.78054 8.13102 8.78388 6.69959 8.93325 5.62892C9.07592 4.60624 9.32617 4.13177 9.66692 3.8032ZM28.3605 24.174C28.0078 23.7831 27.5974 23.4484 27.1436 23.1814C23.9911 21.3023 20.0955 21.1444 16.4565 21.8494C13.7009 22.3833 10.9798 23.4315 8.63889 24.743C8.14711 22.8559 6.43134 21.4631 4.39025 21.4631C1.96558 21.4631 0 23.4287 0 25.8533V35.6094C0 38.0341 1.96558 39.9997 4.39025 39.9997C6.38245 39.9997 8.06473 38.6727 8.60146 36.8544H11.727C13.5972 36.8544 15.4947 37.0509 17.3174 37.4255C20.9147 38.1645 24.6161 38.2465 28.2427 37.6674L28.2449 37.667C30.0139 37.3817 31.8283 36.9322 33.5096 36.1221L33.5121 36.1209C34.8931 35.4522 36.7235 34.4523 38.0095 33.2605C39.2805 32.0828 40.5299 30.2447 41.3589 28.9129C42.5298 27.0391 41.8768 24.8287 40.2455 23.5982L40.2249 23.5832C39.3454 22.9434 38.2858 22.5988 37.1982 22.5988C36.1107 22.5988 35.0509 22.9432 34.1714 23.583L30.6232 26.2633C30.2447 26.5499 29.872 26.8169 29.4999 27.0572C29.4932 26.5813 29.4088 26.1089 29.2495 25.6588C29.055 25.1096 28.7527 24.6048 28.3605 24.174ZM8.7805 33.9276V28.0768C11.101 26.5583 14.0482 25.2973 17.0132 24.7228C20.092 24.1263 23.0143 24.3004 25.272 25.4866C25.3996 25.5536 25.5251 25.6239 25.6484 25.6975L25.6575 25.7029C25.8558 25.8193 26.035 25.9654 26.1889 26.1363L26.1952 26.1433C26.3256 26.2861 26.426 26.4536 26.4905 26.6358C26.555 26.8181 26.5824 27.0114 26.571 27.2044C26.5596 27.3975 26.5097 27.5862 26.4241 27.7596C26.3773 27.8546 26.3203 27.9439 26.2543 28.026C26.0205 28.0632 25.7036 28.0991 25.3523 28.1337C25.1353 28.155 24.9288 28.1737 24.7303 28.1917L24.7288 28.1918L24.7281 28.1919C24.5999 28.2035 24.475 28.2148 24.3527 28.2263C24.2058 28.2402 24.0637 28.2543 23.9443 28.2685L23.9416 28.2689C23.858 28.2788 23.6785 28.3001 23.5206 28.3428C23.4999 28.348 23.282 28.4026 23.0628 28.5509L23.0604 28.5526C22.9839 28.6043 22.5212 28.9168 22.4309 29.5639C22.3177 30.3754 22.8656 30.8411 23.0301 30.959C23.2199 31.0948 23.3965 31.1513 23.4492 31.1679C23.5258 31.1919 23.5897 31.2053 23.6261 31.2122C23.7 31.2262 23.7631 31.2327 23.7969 31.2358C23.9233 31.2475 24.078 31.2496 24.1979 31.2501C24.4692 31.2513 24.8491 31.244 25.2295 31.2334C25.6139 31.2227 26.0152 31.2083 26.3358 31.1944C26.5935 31.1831 26.9379 31.1677 27.0939 31.1436L27.1005 31.1426C29.2494 30.8006 30.9821 29.6627 32.3899 28.5968L35.9026 25.9433C36.2799 25.6718 36.7332 25.5257 37.1982 25.5257C37.6629 25.5257 38.1157 25.6715 38.4928 25.9425C39.0915 26.4001 39.1235 26.9674 38.8765 27.3623L38.8749 27.365C38.0571 28.6789 36.981 30.2234 36.0202 31.1137C35.0704 31.9939 33.5724 32.8397 32.2376 33.4861C30.9069 34.1271 29.3973 34.5164 27.78 34.7773C24.5026 35.3005 21.1574 35.2264 17.9064 34.5585C15.893 34.1448 13.7982 33.9276 11.727 33.9276H8.7805ZM4.39025 24.3899C3.58203 24.3899 2.92683 25.0451 2.92683 25.8533V35.6094C2.92683 36.4176 3.58203 37.0728 4.39025 37.0728C5.19847 37.0728 5.85366 36.4176 5.85366 35.6094V25.8533C5.85366 25.0451 5.19847 24.3899 4.39025 24.3899ZM22.9277 10.2442C22.9277 11.3218 22.0541 12.1954 20.9765 12.1954C19.8989 12.1954 19.0253 11.3218 19.0253 10.2442C19.0253 9.16658 19.8989 8.29298 20.9765 8.29298C22.0541 8.29298 22.9277 9.16658 22.9277 10.2442ZM25.8546 10.2442C25.8546 12.9383 23.6706 15.1223 20.9765 15.1223C18.2824 15.1223 16.0985 12.9383 16.0985 10.2442C16.0985 7.55013 18.2824 5.36615 20.9765 5.36615C23.6706 5.36615 25.8546 7.55013 25.8546 10.2442Z" fill="#EEEBFB"/>
</svg>
