<svg width="26" height="26" viewBox="0 0 26 26" fill="none" xmlns="http://www.w3.org/2000/svg">
<path fill-rule="evenodd" clip-rule="evenodd" d="M5.08073 2.31463H21.7474C22.898 2.31463 23.8307 3.24807 23.8307 4.39953V21.0599C23.8307 22.2114 22.898 23.1448 21.7474 23.1448H5.08073C3.93014 23.1448 2.9974 22.2114 2.9974 21.0599V4.39953C2.9974 3.24807 3.93014 2.31463 5.08073 2.31463ZM0.914062 4.39953C0.914062 2.09662 2.77954 0.229736 5.08073 0.229736H21.7474C24.0486 0.229736 25.9141 2.09662 25.9141 4.39953V21.0599C25.9141 23.3629 24.0486 25.2297 21.7474 25.2297H5.08073C2.77954 25.2297 0.914062 23.3629 0.914062 21.0599V4.39953ZM12.9152 8.34943H15.8819L8.62814 15.6032V13.4058H6.54481V18.1186V19.161H7.58648H12.9152V17.0761H10.1026L17.3564 9.82234V13.4058H19.4398V7.30698V6.26454H18.3981H12.9152V8.34943Z" fill="#333333"/>
</svg>
