<svg width="26" height="26" viewBox="0 0 26 26" fill="none" xmlns="http://www.w3.org/2000/svg">
<path fill-rule="evenodd" clip-rule="evenodd" d="M13.4141 2.15439C11.322 2.15439 9.27695 2.77473 7.53757 3.93688C5.79819 5.09903 4.44262 6.75076 3.64217 8.68311C2.84172 10.6155 2.63229 12.7417 3.04035 14.793C3.44841 16.8444 4.45564 18.7287 5.9348 20.2078C7.41396 21.6869 9.29862 22.6942 11.3505 23.1023C13.4023 23.5104 15.5291 23.301 17.4619 22.5005C19.3947 21.6999 21.0465 20.3443 22.2086 18.6052C23.3708 16.8661 23.991 14.8215 23.991 12.73H25.9141C25.9141 15.2024 25.1809 17.6192 23.8072 19.6749C22.4336 21.7305 20.4814 23.3326 18.1974 24.2786C15.9134 25.2246 13.4002 25.4721 10.9756 24.9898C8.55095 24.5076 6.32369 23.3172 4.57549 21.5691C2.82728 19.821 1.63665 17.5936 1.15428 15.1687C0.671908 12.7438 0.919485 10.2304 1.86567 7.9462C2.81186 5.66204 4.41411 3.70986 6.46972 2.33642C8.52531 0.962999 10.942 0.22998 13.4141 0.22998V2.15439ZM24.4381 6.26715L12.417 17.9536L6.87363 12.0529L8.27477 10.7348L12.4792 15.2102L23.0981 4.88685L24.4381 6.26715Z" fill="#333333"/>
</svg>
