<svg width="26" height="26" viewBox="0 0 26 26" fill="none" xmlns="http://www.w3.org/2000/svg">
<path fill-rule="evenodd" clip-rule="evenodd" d="M14.5538 1.435L13.9684 0.955811L13.362 1.40876L1.29651 10.4224L0.914062 10.7081V11.1825V25.0036V25.9558H1.8756H24.9525H25.9141V25.0036V15.389H23.991V24.0515H2.83714V11.6569L13.9139 3.38195L24.3399 11.9164L25.5651 10.4486L14.5538 1.435ZM10.3155 15.4885C10.1532 15.7198 9.93236 15.9926 9.65286 16.3071L6.01496 20.3586V21.5103H12.5605V20.317H7.66486L10.7077 16.987C11.1495 16.506 11.5101 16.025 11.7896 15.544C12.0691 15.063 12.2089 14.5497 12.2089 14.0039V13.8652C12.2089 13.5044 12.1412 13.1714 12.006 12.8662C11.8798 12.5517 11.6859 12.2834 11.4245 12.0614C11.172 11.8394 10.8565 11.6683 10.4778 11.548C10.0991 11.4185 9.66188 11.3538 9.16601 11.3538C8.71521 11.3538 8.31851 11.4185 7.97591 11.548C7.64232 11.6775 7.34931 11.844 7.09686 12.0475C6.85343 12.2418 6.64607 12.4592 6.47477 12.6997C6.30347 12.9309 6.15921 13.1529 6.04201 13.3657L7.06982 14.0455C7.2321 13.7588 7.39889 13.5229 7.5702 13.3379C7.7415 13.1437 7.91731 12.991 8.09762 12.88C8.27794 12.769 8.45826 12.695 8.63858 12.658C8.82791 12.6118 9.01274 12.5887 9.19305 12.5887C9.70696 12.5887 10.1127 12.7043 10.4102 12.9355C10.7167 13.1575 10.87 13.4674 10.87 13.8652V13.9762C10.87 14.1057 10.8565 14.2444 10.8294 14.3924C10.8114 14.5312 10.7618 14.693 10.6807 14.878C10.5995 15.0538 10.4778 15.2573 10.3155 15.4885ZM16.3654 15.3914C16.0589 15.1139 15.9056 14.7254 15.9056 14.2259V14.0733C15.9056 13.6015 16.0544 13.2315 16.3519 12.9633C16.6494 12.695 17.0416 12.5609 17.5285 12.5609C18.0153 12.5609 18.4075 12.695 18.705 12.9633C19.0026 13.2315 19.1513 13.6015 19.1513 14.0733V14.2259C19.1513 14.7254 18.9936 15.1139 18.678 15.3914C18.3715 15.6689 17.9883 15.8076 17.5285 15.8076C17.0687 15.8076 16.681 15.6689 16.3654 15.3914ZM16.149 19.9979C15.8155 19.7019 15.6487 19.318 15.6487 18.8463V18.6936C15.6487 18.4161 15.6982 18.1756 15.7974 17.9721C15.8966 17.7594 16.0318 17.5836 16.2031 17.4449C16.3744 17.2969 16.5728 17.1905 16.7982 17.1258C17.0326 17.0518 17.2805 17.0148 17.542 17.0148C18.0829 17.0148 18.5292 17.1581 18.8809 17.4449C19.2325 17.7316 19.4083 18.1479 19.4083 18.6936V18.8463C19.4083 19.318 19.2415 19.7019 18.9079 19.9979C18.5833 20.2846 18.128 20.428 17.542 20.428C16.956 20.428 16.4916 20.2846 16.149 19.9979ZM14.3909 17.9028C14.3098 18.1433 14.2692 18.4023 14.2692 18.6798V18.9156C14.2692 19.3134 14.3414 19.6834 14.4856 20.0256C14.6389 20.3586 14.8553 20.6454 15.1348 20.8859C15.4142 21.1264 15.7523 21.316 16.149 21.4548C16.5548 21.5935 17.0146 21.6629 17.5285 21.6629C18.0424 21.6629 18.4977 21.5935 18.8944 21.4548C19.3001 21.316 19.6427 21.1264 19.9222 20.8859C20.2017 20.6454 20.4136 20.3586 20.5578 20.0256C20.7111 19.6834 20.7877 19.3134 20.7877 18.9156V18.6798C20.7877 18.1248 20.6254 17.6391 20.3009 17.2229C19.9853 16.8066 19.5886 16.5245 19.1108 16.3765C19.5886 16.1268 19.9402 15.803 20.1656 15.4053C20.391 15.0075 20.5037 14.5959 20.5037 14.1704V13.9762C20.5037 13.6154 20.4361 13.2778 20.3009 12.9633C20.1656 12.6488 19.9718 12.3713 19.7193 12.1308C19.4669 11.8903 19.1558 11.7007 18.7862 11.5619C18.4165 11.4232 17.9973 11.3538 17.5285 11.3538C17.0506 11.3538 16.6269 11.4232 16.2572 11.5619C15.8876 11.7007 15.5765 11.8903 15.3241 12.1308C15.0716 12.3713 14.8778 12.6488 14.7426 12.9633C14.6163 13.2778 14.5532 13.6154 14.5532 13.9762V14.1704C14.5532 14.5959 14.6659 15.0121 14.8913 15.4191C15.1257 15.8261 15.4774 16.1453 15.9462 16.3765C15.7118 16.4505 15.4909 16.5615 15.2835 16.7095C15.0852 16.8575 14.9094 17.0333 14.7561 17.2368C14.6028 17.431 14.4811 17.653 14.3909 17.9028Z" fill="#333333"/>
</svg>
