<svg width="26" height="25" viewBox="0 0 26 25" fill="none" xmlns="http://www.w3.org/2000/svg">
<path fill-rule="evenodd" clip-rule="evenodd" d="M13.4004 0C13.0496 0 12.7022 0.0144493 12.3587 0.0427852C5.94255 0.572109 0.900391 5.94723 0.900391 12.5C0.900391 19.0528 5.94255 24.4279 12.3587 24.9572C12.7022 24.9856 13.0496 25 13.4004 25C13.7512 25 14.0986 24.9856 14.4421 24.9572C20.8582 24.4279 25.9004 19.0528 25.9004 12.5C25.9004 5.94723 20.8582 0.572109 14.4421 0.0427852C14.0986 0.0144493 13.7512 0 13.4004 0ZM12.3587 2.13631C7.09367 2.65891 2.98372 7.10071 2.98372 12.5C2.98372 17.8993 7.09367 22.3411 12.3587 22.8637L12.3587 2.13631ZM14.4421 22.8637L14.4421 2.13631C19.7071 2.65891 23.8171 7.10071 23.8171 12.5C23.8171 17.8993 19.7071 22.3411 14.4421 22.8637Z" fill="#333333"/>
</svg>
