<svg width="26" height="26" viewBox="0 0 26 26" fill="none" xmlns="http://www.w3.org/2000/svg">
<path fill-rule="evenodd" clip-rule="evenodd" d="M9.85402 3.23979C10.0395 3.23979 10.2637 3.07393 10.2637 2.77722C10.2637 2.48052 10.0395 2.31466 9.85402 2.31466C9.66856 2.31466 9.44438 2.48052 9.44438 2.77722C9.44438 3.07393 9.66856 3.23979 9.85402 3.23979ZM9.85402 5.32471C11.2309 5.32471 12.347 4.18416 12.347 2.77722C12.347 1.37029 11.2309 0.229736 9.85402 0.229736C8.47719 0.229736 7.36104 1.37029 7.36104 2.77722C7.36104 4.18416 8.47719 5.32471 9.85402 5.32471ZM16.9337 0.295575L7.55869 9.67771L9.03184 11.152L18.4069 1.76984L16.9337 0.295575ZM2.9974 14.2179H5.95094V23.1448H2.9974V14.2179ZM0.914062 12.133H2.9974H5.95094H8.03428V14.2179V23.1448V25.2297H5.95094H2.9974H0.914062V23.1448V14.2179V12.133ZM14.8908 19.8769H11.9373V23.1446H14.8908V19.8769ZM11.9373 17.792H9.85395V19.8769V23.1446V25.2295H11.9373H14.8908H16.9742V23.1446V19.8769V17.792H14.8908H11.9373ZM20.8772 14.2179H23.8307V23.1448H20.8772V14.2179ZM18.7938 12.133H20.8772H23.8307H25.9141V14.2179V23.1448V25.2297H23.8307H20.8772H18.7938V23.1448V14.2179V12.133ZM16.7104 8.77416C16.7104 9.07087 16.4862 9.23673 16.3007 9.23673C16.1153 9.23673 15.8911 9.07087 15.8911 8.77416C15.8911 8.47746 16.1153 8.3116 16.3007 8.3116C16.4862 8.3116 16.7104 8.47746 16.7104 8.77416ZM18.7937 8.77416C18.7937 10.1811 17.6776 11.3217 16.3007 11.3217C14.9239 11.3217 13.8078 10.1811 13.8078 8.77416C13.8078 7.36723 14.9239 6.22668 16.3007 6.22668C17.6776 6.22668 18.7937 7.36723 18.7937 8.77416Z" fill="#333333"/>
</svg>
