<svg width="26" height="26" viewBox="0 0 26 26" fill="none" xmlns="http://www.w3.org/2000/svg">
<path fill-rule="evenodd" clip-rule="evenodd" d="M3.00277 3.2505C3.05612 2.72484 3.49972 2.31463 4.03906 2.31463H11.3307V9.60239C11.3307 10.1781 10.8644 10.6448 10.2891 10.6448H2.9974V3.35708C2.9974 3.3211 2.99922 3.28554 3.00277 3.2505ZM0.914062 12.7297V3.35708C0.914062 3.24913 0.919528 3.14246 0.930197 3.03733C1.09023 1.46035 2.42104 0.229736 4.03906 0.229736H13.4141H22.7891C24.515 0.229736 25.9141 1.6299 25.9141 3.35708V22.1024C25.9141 23.8296 24.515 25.2297 22.7891 25.2297H4.03906C2.31317 25.2297 0.914062 23.8296 0.914062 22.1024V12.7297ZM13.4141 2.31463H22.7891C23.3644 2.31463 23.8307 2.78135 23.8307 3.35708V22.1024C23.8307 22.6781 23.3644 23.1448 22.7891 23.1448H4.03906C3.46377 23.1448 2.9974 22.6781 2.9974 22.1024V12.7297H10.2891C12.015 12.7297 13.4141 11.3296 13.4141 9.60239V2.31463Z" fill="#333333"/>
</svg>
