<svg width="22" height="22" viewBox="0 0 22 22" fill="#cccccc" xmlns="http://www.w3.org/2000/svg">
<path d="M16.6564 16.6569C13.5381 19.7752 8.46104 19.7752 5.3427 16.6569C2.22436 13.5385 2.22436 8.46149 5.3427 5.34315C8.46104 2.22481 13.5381 2.22481 16.6564 5.34315C19.7748 8.46149 19.7748 13.5385 16.6564 16.6569ZM3.92849 3.92893C0.018189 7.83923 0.018189 14.1608 3.92849 18.0711C7.83879 21.9814 14.1603 21.9814 18.0706 18.0711C21.9809 14.1608 21.9809 7.83923 18.0706 3.92893C14.1603 0.0186317 7.83879 0.0186317 3.92849 3.92893ZM10.0025 6.34017V10.003H6.33972V11.997H10.0025V15.6598H11.9966V11.997H15.6594V10.003H11.9966V6.34017H10.0025Z" />
</svg>
