<svg width="18" height="19" viewBox="0 0 18 19" fill="none" xmlns="http://www.w3.org/2000/svg">
<path fill-rule="evenodd" clip-rule="evenodd" d="M4.5 0.0766602C3.30653 0.0766602 2.16193 0.550766 1.31802 1.39468C0.474106 2.23859 0 3.38319 0 4.57666V13.5767C0 14.7701 0.474106 15.9147 1.31802 16.7586C2.16193 17.6026 3.30653 18.0767 4.5 18.0767H13.5C14.6935 18.0767 15.8381 17.6026 16.682 16.7586C17.5259 15.9147 18 14.7701 18 13.5767V4.57666C18 3.38319 17.5259 2.23859 16.682 1.39468C15.8381 0.550766 14.6935 0.0766602 13.5 0.0766602H4.5ZM12.357 7.89226C12.4378 7.80598 12.5009 7.70463 12.5426 7.59398C12.5842 7.48333 12.6037 7.36556 12.5999 7.24739C12.596 7.12921 12.5689 7.01296 12.5202 6.90525C12.4714 6.79755 12.4019 6.7005 12.3156 6.61966C12.2293 6.53882 12.128 6.47576 12.0173 6.43409C11.9067 6.39242 11.7889 6.37295 11.6707 6.3768C11.5526 6.38064 11.4363 6.40772 11.3286 6.4565C11.2209 6.50527 11.1238 6.57478 11.043 6.66106L8.2683 9.62206L6.8976 8.40436C6.71801 8.25507 6.48743 8.18143 6.25455 8.199C6.02167 8.21657 5.80474 8.32397 5.64959 8.49852C5.49444 8.67307 5.41321 8.90109 5.42306 9.13442C5.43292 9.36775 5.53308 9.58811 5.7024 9.74896L7.7274 11.549C7.90262 11.7046 8.13164 11.7858 8.36576 11.7752C8.59989 11.7646 8.82065 11.6631 8.9811 11.4923L12.3561 7.89226H12.357Z" fill="#888888"/>
</svg>
