<svg width="19" height="19" viewBox="0 0 19 19" fill="none" xmlns="http://www.w3.org/2000/svg">
<path fill-rule="evenodd" clip-rule="evenodd" d="M5.37001 2.07666C3.95861 2.07666 2.81445 3.22082 2.81445 4.63222V13.5211C2.81445 14.9325 3.95861 16.0767 5.37001 16.0767H14.2589C15.6703 16.0767 16.8145 14.9325 16.8145 13.5211V4.63222C16.8145 3.22082 15.6703 2.07666 14.2589 2.07666H5.37001ZM0.814453 4.63222C0.814453 2.11625 2.85404 0.0766602 5.37001 0.0766602H14.2589C16.7749 0.0766602 18.8145 2.11625 18.8145 4.63222V13.5211C18.8145 16.0371 16.7749 18.0767 14.2589 18.0767H5.37001C2.85404 18.0767 0.814453 16.0371 0.814453 13.5211V4.63222Z" fill="#888888"/>
</svg>
