<svg width="57" height="57" viewBox="0 0 57 57" fill="none" xmlns="http://www.w3.org/2000/svg">
<path d="M48.8571 33.9286V16.2857L35.2857 6.78571L21.7143 16.2857V20.3571H16.2857V13.5714L35.2857 0L54.2857 13.5714V33.9286H48.8571ZM35.2857 57L16.2857 51.7071V55.6429H0V25.7857H21.5786L43.4286 33.9286V39.3571H57V50.2143L35.2857 57ZM5.42857 50.2143H10.8571V31.2143H5.42857V50.2143ZM35.15 51.3L51.3 46.2786V44.7857H32.0964L23.6143 41.9357L25.2429 36.7786L33.1821 39.3571H38V37.5929L20.6286 31.2143H16.2857V46.1429L35.15 51.3ZM36.6429 17.6429H39.3571V14.9286H36.6429V17.6429ZM31.2143 17.6429H33.9286V14.9286H31.2143V17.6429ZM36.6429 23.0714H39.3571V20.3571H36.6429V23.0714ZM31.2143 23.0714H33.9286V20.3571H31.2143V23.0714Z" fill="#333333"/>
</svg>
