<svg width="18" height="24" viewBox="0 0 18 24" fill="none" xmlns="http://www.w3.org/2000/svg">
<path d="M9 18.0238C7.7625 18.0238 6.75 17.0381 6.75 15.8333C6.75 14.6286 7.7625 13.6429 9 13.6429C10.2375 13.6429 11.25 14.6286 11.25 15.8333C11.25 17.0381 10.2375 18.0238 9 18.0238ZM15.75 21.3095V10.3571H2.25V21.3095H15.75ZM15.75 8.16667C16.9875 8.16667 18 9.15238 18 10.3571V21.3095C18 22.5143 16.9875 23.5 15.75 23.5H2.25C1.0125 23.5 0 22.5143 0 21.3095V10.3571C0 9.15238 1.0125 8.16667 2.25 8.16667H3.375V5.97619C3.375 2.90952 5.85 0.5 9 0.5C12.15 0.5 14.625 2.90952 14.625 5.97619V8.16667H15.75ZM9 2.69048C7.0875 2.69048 5.625 4.11429 5.625 5.97619V8.16667H12.375V5.97619C12.375 4.11429 10.9125 2.69048 9 2.69048Z" fill="#888888"/>
</svg>
