<svg width="22" height="26" viewBox="0 0 22 26" fill="none" xmlns="http://www.w3.org/2000/svg">
<path fill-rule="evenodd" clip-rule="evenodd" d="M20.3336 15.6666C19.7148 15.0477 18.8754 14.7 18.0002 14.7H4.0002C3.12498 14.7 2.28561 15.0477 1.66674 15.6666C1.04787 16.2854 0.700195 17.1248 0.700195 18V18.715C0.700195 20.7032 1.83036 22.3602 3.67032 23.5064C5.50617 24.65 8.06517 25.3 11.0002 25.3C13.9383 25.3 16.4972 24.6135 18.3319 23.4524C20.1677 22.2905 21.3002 20.635 21.3002 18.715V18C21.3002 17.1248 20.9525 16.2854 20.3336 15.6666ZM4.00019 16.8H17.993L18.123 16.8063C18.4172 16.8366 18.6899 16.9744 18.8888 17.1935C19.0892 17.4143 19.2002 17.7018 19.2002 18V18.7103L19.1955 18.863C19.1318 19.9806 18.3346 21.059 16.895 21.8714C15.4591 22.6817 13.4238 23.2 11.0002 23.2C8.48187 23.2 6.4126 22.6793 4.98409 21.8508C3.5549 21.0218 2.8002 19.9094 2.8002 18.715V18.0072L2.80648 17.8772C2.83675 17.583 2.9746 17.3103 3.1937 17.1114C3.41451 16.911 3.70201 16.8 4.00019 16.8ZM4.0002 16.5H18.0002L18 16.5H4C3.62727 16.5 3.2679 16.6388 2.99189 16.8892C2.71589 17.1397 2.54303 17.484 2.507 17.855L2.5 18V18.715C2.5 20.9715 4.91334 22.8271 8.73829 23.3515C4.91346 22.827 2.5002 20.9715 2.5002 18.715V18L2.5072 17.855C2.54323 17.484 2.71608 17.1398 2.99209 16.8893C3.26809 16.6388 3.62747 16.5 4.0002 16.5ZM13.4111 1.17957C12.6467 0.862966 11.8275 0.700012 11.0002 0.700012C9.32933 0.700012 7.7269 1.36376 6.54542 2.54524C5.36394 3.72672 4.7002 5.32915 4.7002 7.00001C4.7002 8.67088 5.36394 10.2733 6.54542 11.4548C7.7269 12.6363 9.32933 13.3 11.0002 13.3C11.8275 13.3 12.6468 13.1371 13.4111 12.8205C14.1755 12.5038 14.87 12.0398 15.455 11.4548C16.04 10.8698 16.504 10.1753 16.8206 9.41092C17.1372 8.64657 17.3002 7.82734 17.3002 7.00001C17.3002 6.17268 17.1372 5.35346 16.8206 4.58911C16.504 3.82476 16.04 3.13025 15.455 2.54524C14.87 1.96023 14.1755 1.49618 13.4111 1.17957ZM8.03035 4.03016C8.818 3.24251 9.88629 2.80001 11.0002 2.80001C12.1141 2.80001 13.1824 3.24251 13.97 4.03016C14.7577 4.81782 15.2002 5.8861 15.2002 7.00001C15.2002 8.11392 14.7577 9.18221 13.97 9.96986C13.1824 10.7575 12.1141 11.2 11.0002 11.2C9.88629 11.2 8.818 10.7575 8.03035 9.96986C7.24269 9.18221 6.8002 8.11392 6.8002 7.00001C6.8002 5.8861 7.24269 4.81782 8.03035 4.03016ZM18.4143 15.0287C19.0569 15.1183 19.6574 15.4146 20.1215 15.8787C20.6841 16.4413 21.0002 17.2044 21.0002 18V18.715C21.0002 22.292 16.7902 25 11.0002 25C10.6383 25 10.2826 24.99 9.93373 24.9703C10.2826 24.99 10.6382 25 11 25C16.79 25 21 22.292 21 18.715V18C21 17.2044 20.6839 16.4413 20.1213 15.8787C19.6573 15.4146 19.0569 15.1183 18.4143 15.0287ZM11.5954 1.02961C12.1792 1.08781 12.7523 1.23142 13.2963 1.45673C14.0243 1.75826 14.6857 2.20022 15.2428 2.75737C15.8 3.31452 16.2419 3.97596 16.5435 4.70391C16.845 5.43187 17.0002 6.21208 17.0002 7.00001C17.0002 7.78794 16.845 8.56816 16.5435 9.29611C16.2419 10.0241 15.8 10.6855 15.2428 11.2427C14.6857 11.7998 14.0243 12.2418 13.2963 12.5433C12.5683 12.8448 11.7881 13 11.0002 13C10.9007 13 10.8015 12.9975 10.7027 12.9926C10.8015 12.9975 10.9006 13 11 13C11.7879 13 12.5681 12.8448 13.2961 12.5433C14.0241 12.2417 14.6855 11.7998 15.2426 11.2426C15.7998 10.6855 16.2417 10.0241 16.5433 9.2961C16.8448 8.56815 17 7.78793 17 7C17 6.21207 16.8448 5.43185 16.5433 4.7039C16.2417 3.97595 15.7998 3.31451 15.2426 2.75736C14.6855 2.20021 14.0241 1.75825 13.2961 1.45672C12.7522 1.23143 12.1791 1.08782 11.5954 1.02961ZM11.0002 2.50001C9.80672 2.50001 8.66213 2.97412 7.81822 3.81803C6.9743 4.66195 6.5002 5.80654 6.5002 7.00001C6.5002 8.19349 6.9743 9.33808 7.81822 10.182C8.55664 10.9204 9.52527 11.3757 10.5554 11.478C9.5252 11.3757 8.55649 10.9205 7.81802 10.182C6.97411 9.33807 6.5 8.19347 6.5 7C6.5 5.80653 6.97411 4.66193 7.81802 3.81802C8.66193 2.97411 9.80653 2.5 11 2.5C11.0393 2.5 11.0786 2.50052 11.1178 2.50155C11.0786 2.50052 11.0394 2.50001 11.0002 2.50001Z" fill="#888888"/>
</svg>
