<svg width="16" height="16" viewBox="0 0 16 16" fill="none" xmlns="http://www.w3.org/2000/svg">
<path d="M8 0C3.58214 0 0 3.58214 0 8C0 12.4179 3.58214 16 8 16C12.4179 16 16 12.4179 16 8C16 3.58214 12.4179 0 8 0ZM8 14.6429C4.33214 14.6429 1.35714 11.6679 1.35714 8C1.35714 4.33214 4.33214 1.35714 8 1.35714C11.6679 1.35714 14.6429 4.33214 14.6429 8C14.6429 11.6679 11.6679 14.6429 8 14.6429Z" fill="#E2E0E0"/>
<path d="M9.99258 4.51243C9.45686 4.04279 8.74972 3.78564 7.99972 3.78564C7.24972 3.78564 6.54258 4.04457 6.00686 4.51243C5.44972 4.99993 5.14258 5.65529 5.14258 6.35707V6.49279C5.14258 6.57136 5.20686 6.63564 5.28544 6.63564H6.14258C6.22115 6.63564 6.28544 6.57136 6.28544 6.49279V6.35707C6.28544 5.56957 7.05508 4.9285 7.99972 4.9285C8.94436 4.9285 9.71401 5.56957 9.71401 6.35707C9.71401 6.91243 9.32115 7.42136 8.71222 7.65529C8.33365 7.79993 8.01222 8.0535 7.78186 8.38564C7.54794 8.72493 7.42651 9.13207 7.42651 9.54457V9.9285C7.42651 10.0071 7.49079 10.0714 7.56936 10.0714H8.42651C8.50508 10.0714 8.56936 10.0071 8.56936 9.9285V9.52314C8.57029 9.34979 8.62343 9.18074 8.72186 9.03803C8.82028 8.89533 8.95943 8.78559 9.12115 8.72314C10.1747 8.31779 10.8551 7.38922 10.8551 6.35707C10.8569 5.65529 10.5497 4.99993 9.99258 4.51243ZM7.28544 11.9285C7.28544 12.1179 7.36069 12.2996 7.49464 12.4336C7.6286 12.5675 7.81028 12.6428 7.99972 12.6428C8.18916 12.6428 8.37084 12.5675 8.5048 12.4336C8.63875 12.2996 8.71401 12.1179 8.71401 11.9285C8.71401 11.7391 8.63875 11.5574 8.5048 11.4234C8.37084 11.2895 8.18916 11.2142 7.99972 11.2142C7.81028 11.2142 7.6286 11.2895 7.49464 11.4234C7.36069 11.5574 7.28544 11.7391 7.28544 11.9285Z" fill="#E2E0E0"/>
</svg>
