<svg width="16" height="16" viewBox="0 0 16 16" fill="none" xmlns="http://www.w3.org/2000/svg">
<path d="M8 0C3.58214 0 0 3.58214 0 8C0 12.4179 3.58214 16 8 16C12.4179 16 16 12.4179 16 8C16 3.58214 12.4179 0 8 0ZM8 14.6429C4.33214 14.6429 1.35714 11.6679 1.35714 8C1.35714 4.33214 4.33214 1.35714 8 1.35714C11.6679 1.35714 14.6429 4.33214 14.6429 8C14.6429 11.6679 11.6679 14.6429 8 14.6429Z" fill="#E2E0E0"/>
<path fill-rule="evenodd" clip-rule="evenodd" d="M6.46927 4.30448C6.95457 4.10346 7.47471 4 8 4C9.36194 4 10.5678 4.68123 11.2727 5.72339V4.36364H12V7.15152H9.21212V6.42424H10.8461C10.3155 5.41622 9.24026 4.72727 8 4.72727C7.57022 4.72727 7.14465 4.81192 6.74758 4.97639C6.35052 5.14086 5.98973 5.38193 5.68583 5.68583C5.38193 5.98973 5.14086 6.35052 4.97639 6.74758C4.81192 7.14465 4.72727 7.57022 4.72727 8C4.72727 8.42978 4.81192 8.85535 4.97639 9.25242C5.14086 9.64948 5.38193 10.0103 5.68583 10.3142C5.98973 10.6181 6.35052 10.8591 6.74758 11.0236C7.14465 11.1881 7.57022 11.2727 8 11.2727C8.86798 11.2727 9.70041 10.9279 10.3142 10.3142C10.9279 9.70041 11.2727 8.86798 11.2727 8L12 8C12 9.06087 11.5786 10.0783 10.8284 10.8284C10.0783 11.5786 9.06087 12 8 12C7.47471 12 6.95457 11.8965 6.46927 11.6955C5.98396 11.4945 5.54301 11.1999 5.17157 10.8284C4.80014 10.457 4.5055 10.016 4.30448 9.53073C4.10346 9.04543 4 8.52529 4 8C4 7.47471 4.10346 6.95457 4.30448 6.46927C4.5055 5.98396 4.80014 5.54301 5.17157 5.17157C5.54301 4.80014 5.98396 4.5055 6.46927 4.30448ZM11.1471 6.42424H11.2727V6.36469L11.1471 6.42424Z" fill="#E2E0E0"/>
</svg>
