<svg width="11" height="11" viewBox="0 0 11 11" fill="none" xmlns="http://www.w3.org/2000/svg">
<path fill-rule="evenodd" clip-rule="evenodd" d="M3.39524 0.418663C4.06253 0.142262 4.77773 0 5.5 0C7.37267 0 9.03066 0.936687 10 2.36967V0.5H11V4.33333H7.16667V3.33333H9.41335C8.68384 1.94731 7.20536 1 5.5 1C4.90905 1 4.32389 1.1164 3.77792 1.34254C3.23196 1.56869 2.73588 1.90016 2.31802 2.31802C1.90016 2.73588 1.56869 3.23196 1.34254 3.77792C1.1164 4.32389 1 4.90905 1 5.5C1 6.09095 1.1164 6.67611 1.34254 7.22208C1.56869 7.76804 1.90016 8.26412 2.31802 8.68198C2.73588 9.09984 3.23196 9.43131 3.77792 9.65746C4.32389 9.88361 4.90905 10 5.5 10C6.69347 10 7.83807 9.52589 8.68198 8.68198C9.52589 7.83807 10 6.69347 10 5.5L11 5.5C11 6.95869 10.4205 8.35764 9.38909 9.38909C8.35764 10.4205 6.95869 11 5.5 11C4.77773 11 4.06253 10.8577 3.39524 10.5813C2.72795 10.3049 2.12163 9.89981 1.61091 9.38909C1.10019 8.87837 0.695064 8.27205 0.418663 7.60476C0.142262 6.93747 0 6.22227 0 5.5C0 4.77773 0.142262 4.06253 0.418663 3.39524C0.695064 2.72795 1.10019 2.12163 1.61091 1.61091C2.12164 1.10019 2.72795 0.695063 3.39524 0.418663ZM9.82724 3.33333H10V3.25145L9.82724 3.33333Z" fill="#888888"/>
</svg>
